<?xml version="1.0" standalone="yes"?>
<svg xmlns="http://www.w3.org/2000/svg" xmlns:xlink="http://www.w3.org/1999/xlink" xmlns:svg="http://www.w3.org/2000/svg" xmlns:dc="http://purl.org/dc/elements/1.1/" xmlns:cc="http://web.resource.org/cc/" xmlns:rdf="http://www.w3.org/1999/02/22-rdf-syntax-ns#" width="195" height="173">
<path style="fill:#ffffff; stroke:none;" d="M0 0L0 173L195 173L195 0L0 0z"/>
<path style="fill:#97918c; stroke:none;" d="M59 3L59 8L54 6L54 7L60 9L60 5L63 6L59 3z"/>
<path style="fill:#536169; stroke:none;" d="M48.6667 5.33333L49.3333 5.66667L48.6667 5.33333z"/>
<path style="fill:#b1aeac; stroke:none;" d="M49 6L50 11L54 12C53.4236 9.26215 50.4849 6.46867 54 6L49 6M67 6L69 11L82 11C79.0791 7.16304 74.2697 7.98631 70 9L72 5L67 6z"/>
<path style="fill:#909a9e; stroke:none;" d="M63.3333 6.66667L63.6667 7.33333L63.3333 6.66667z"/>
<path style="fill:#d8d4d3; stroke:none;" d="M64 7L64 8L68 11L69 11L69 7L64 7z"/>
<path style="fill:#97918c; stroke:none;" d="M64 8L64 10L66 10L66 8L64 8z"/>
<path style="fill:#bababa; stroke:none;" d="M42 9L44 13L44 14L36 17L36 18L46 12L43 12L43 10L49 10L42 9z"/>
<path style="fill:#6a6a6a; stroke:none;" d="M39 12L42 10L39 12z"/>
<path style="fill:#d8d4d3; stroke:none;" d="M76 11L75 13L75 14L79 11L76 11z"/>
<path style="fill:#7c766a; stroke:none;" d="M75.6667 12.3333L76.3333 12.6667L75.6667 12.3333z"/>
<path style="fill:#536169; stroke:none;" d="M45.6667 13.3333L46.3333 13.6667L45.6667 13.3333z"/>
<path style="fill:#b1aeac; stroke:none;" d="M78 13L78 14L89 20L85 22L88 21L94 30L89 22L92 21C88.356 15.9513 84.1931 13.5448 78 13z"/>
<path style="fill:#cacdce; stroke:none;" d="M32 21L34 23L38 23L36 18L32 21z"/>
<path style="fill:#a4a4a3; stroke:none;" d="M36 20L36 21L42 21L36 20z"/>
<path style="fill:#97918c; stroke:none;" d="M32 23L35 21L32 23z"/>
<path style="fill:#6a6a6a; stroke:none;" d="M86.6667 21.3333L87.3333 21.6667L86.6667 21.3333z"/>
<path style="fill:#4d4d4d; stroke:none;" d="M91 21L92 22L91 21z"/>
<path style="fill:#b1aeac; stroke:none;" d="M31 28L36 23L31 28z"/>
<path style="fill:#b1957d; stroke:none;" d="M70 27L70 32L63 32L63 33C72.0739 33.026 77.885 36.2598 78 46C72.4422 43.7566 60.4718 44.2538 55 47L53 42L54 47C48.7552 47.8786 49.276 53.6407 54 52C57.3769 58.0912 64.7329 58.2256 68 52L70 53L71 53C67.0768 48.5871 62.4532 58.3598 57 52L55 53L53 48L55 50L56 50L59 46L79 48L79 43L83 43L83 42L79 42L79 35L70 27z"/>
<path style="fill:#b1aeac; stroke:none;" d="M30 28L28 33L33 32L28 47L31 48L32 48L32 43L29 45L37 30L30 31L30 28z"/>
<path style="fill:#bababa; stroke:none;" d="M59 28L59 35L63 33L59 28M94 30L91 33L93 38L94 38L93 35L97 36L94 30z"/>
<path style="fill:#d8d4d3; stroke:none;" d="M64 31L64 32L70 32L64 31z"/>
<path style="fill:#ffcc9c; stroke:none;" d="M55 47L69 47C72.0167 43.9658 74.1819 44.4252 78 46C77.9333 27.1189 49.8154 30.4605 55 47z"/>
<path style="fill:#bababa; stroke:none;" d="M79 36L82 33L79 36z"/>
<path style="fill:#b1957d; stroke:none;" d="M54 37L53 37L50 35L52 40L59 35L54 37z"/>
<path style="fill:#97918c; stroke:none;" d="M94 38L96 45L93 44L94 53L95 53L94 46L98 47L94 38z"/>
<path style="fill:#d5dfc4; stroke:none;" d="M119 39L119 63L120 63L134 61L171 62L172 61L171 40L119 39z"/>
<path style="fill:#7c766a; stroke:none;" d="M52 40L51 43L52 40z"/>
<path style="fill:#cacdce; stroke:none;" d="M79.3333 40.6667L79.6667 41.3333L79.3333 40.6667z"/>
<path style="fill:#fbfec6; stroke:none;" d="M120 41L120 60L170 60L170 41L120 41z"/>
<path style="fill:#6a6a6a; stroke:none;" d="M32.3333 42.6667L32.6667 43.3333L32.3333 42.6667z"/>
<path style="fill:#bababa; stroke:none;" d="M49 42L49 44L51 44L51 42L49 42z"/>
<path style="fill:#d9dddd; stroke:none;" d="M92 43L92 46L93 46L94 43L92 43z"/>
<path style="fill:#a38c6e; stroke:none;" d="M69 47L74 45L69 47z"/>
<path style="fill:#ef9167; stroke:none;" d="M163 44L167 48L163 44z"/>
<path style="fill:#f56658; stroke:none;" d="M164 44L164 45L166 47L167 47L164 44z"/>
<path style="fill:#d8d4d3; stroke:none;" d="M62.6667 45.3333L63.3333 45.6667L62.6667 45.3333z"/>
<path style="fill:#ffffff; stroke:none;" d="M71.6667 45.3333L72.3333 45.6667L71.6667 45.3333z"/>
<path style="fill:#d9dddd; stroke:none;" d="M59.6667 46.3333L60.3333 46.6667L59.6667 46.3333z"/>
<path style="fill:#414546; stroke:none;" d="M56 52L62 53C67.1902 47.6587 73.2198 49.9813 80 50C75.8236 45.703 58.1539 45.7372 56 52z"/>
<path style="fill:#fa1517; stroke:none;" d="M123 47L123 56L128 56L128 55L124 55L124 52L128 52L128 51L125 51L125 48L128 48L123 47z"/>
<path style="fill:#a4a4a3; stroke:none;" d="M30 48L31 62L32 62L35 59L36 64L37 64L33 56L32 59L31 59L30 48z"/>
<path style="fill:#fbfec6; stroke:none;" d="M53 48L55 53L56 53L53 48z"/>
<path style="fill:#fea58a; stroke:none;" d="M125 48L125 49L128 49L125 48z"/>
<path style="fill:#f62a26; stroke:none;" d="M164 48L163 50L165 50L164 48z"/>
<path style="fill:#8f7961; stroke:none;" d="M65 49L65 50L71 50C72.8521 58.7469 81.9832 56.812 80 68L81 68L80 54L74 54L76 51L65 49z"/>
<path style="fill:#97918c; stroke:none;" d="M80 49L77 50L77 51L80 49z"/>
<path style="fill:#ef9167; stroke:none;" d="M146 49L146 50L151 50L146 49z"/>
<path style="fill:#f56658; stroke:none;" d="M151 52L154 49L151 52M159 49L159 50L162 51L159 49z"/>
<path style="fill:#fea58a; stroke:none;" d="M163 50L163 51L167 49L163 50z"/>
<path style="fill:#ffcc9c; stroke:none;" d="M48 50L51 60L52 57L53 57C52.9008 59.8704 52.1992 63.2433 53.4074 65.956C58.2057 76.7294 71.5845 74.5895 78.5702 68.1258C81.4292 65.4804 81.8083 59.6027 78.5255 57.0625C75.9253 55.0506 71.1187 53.0796 68 52C63.5402 57.6254 58.5599 57.4445 54 52L52 54L48 50M52.3333 50.6667L52.6667 51.3333L52.3333 50.6667z"/>
<path style="fill:#8f7961; stroke:none;" d="M58 50L58 51L61 52L58 50z"/>
<path style="fill:#a4a4a3; stroke:none;" d="M63 50L62 54L65 50L63 50z"/>
<path style="fill:#fbfec6; stroke:none;" d="M65 50L64 54L57 51C59.5951 59.5427 65.7849 52.538 71 51L65 50z"/>
<path style="fill:#bababa; stroke:none;" d="M75 50L81 54L81 51L75 50z"/>
<path style="fill:#f56658; stroke:none;" d="M134 50L134 52L140 52L140 50L134 50z"/>
<path style="fill:#fea58a; stroke:none;" d="M145 50L145 56L146 56L145 50z"/>
<path style="fill:#fa1517; stroke:none;" d="M146 50L146 56L147 56L147 51L150 51L150 56L151 56L151 50L146 50M153 50L154 56L155 56L153 50z"/>
<path style="fill:#f62a26; stroke:none;" d="M162 56L162 55L158 54L158 52L161 51C156.056 49.8873 157.666 55.2766 162 56z"/>
<path style="fill:#0d1517; stroke:none;" d="M72.3333 51.6667L72.6667 52.3333L72.3333 51.6667z"/>
<path style="fill:#536169; stroke:none;" d="M90.3333 51.6667L90.6667 52.3333L90.3333 51.6667z"/>
<path style="fill:#ffcc9c; stroke:none;" d="M147 51L147 56L148 56L147 51z"/>
<path style="fill:#fea58a; stroke:none;" d="M155 51L155 56L156 56L155 51z"/>
<path style="fill:#97918c; stroke:none;" d="M48 52L48 56L49 56L48 52z"/>
<path style="fill:#fbfec6; stroke:none;" d="M74 53L74 54L78 55L77 52L74 53z"/>
<path style="fill:#b1aeac; stroke:none;" d="M91 52L89 62L90 62L91 54L92 54L95 59L95 53L91 52z"/>
<path style="fill:#f56658; stroke:none;" d="M124 52L124 55L125 55L124 52z"/>
<path style="fill:#fea58a; stroke:none;" d="M151 52L151 56L152 56L151 52z"/>
<path style="fill:#ef9167; stroke:none;" d="M158.333 52.6667L158.667 53.3333L158.333 52.6667z"/>
<path style="fill:#f62a26; stroke:none;" d="M134 53L134 54L140 54L134 53z"/>
<path style="fill:#fea58a; stroke:none;" d="M134 54L134 55L140 55L134 54z"/>
<path style="fill:#7c766a; stroke:none;" d="M34.3333 55.6667L34.6667 56.3333L34.3333 55.6667z"/>
<path style="fill:#4d4d4d; stroke:none;" d="M94.3333 56.6667L94.6667 57.3333L94.3333 56.6667z"/>
<path style="fill:#815244; stroke:none;" d="M52 57L51 60L52 57z"/>
<path style="fill:#4d4d4d; stroke:none;" d="M86.3333 57.6667L86.6667 58.3333L86.3333 57.6667z"/>
<path style="fill:#b1957d; stroke:none;" d="M76 58C72.4453 62.2671 68.1533 62.8911 64 59L58 61L58 68C63.426 68.7732 67.4737 72.5994 72 68L59 66L64 61C66.9546 64.3811 77.2736 64.0573 76 58z"/>
<path style="fill:#909a9e; stroke:none;" d="M85 58L85 62L86 62L88 61L85 58z"/>
<path style="fill:#b1957d; stroke:none;" d="M51 60C51.104 68.8051 58.0679 72.6566 62 80L65 79L66 83L67 83L71 75L71 74C62.6486 74.3983 52.6219 69.2659 53 60L51 60z"/>
<path style="fill:#ffffff; stroke:none;" d="M59 66L79 65L77 61L76 61C71.7523 63.5669 68.0267 64.2803 64 61L59 66z"/>
<path style="fill:#b1957d; stroke:none;" d="M78 61L79 65L72 66L72 67C76.2369 66.9498 81.67 66.0714 78 61z"/>
<path style="fill:#7c766a; stroke:none;" d="M88.3333 61.6667L88.6667 62.3333L88.3333 61.6667z"/>
<path style="fill:#909a9e; stroke:none;" d="M41 63L40 66L37 64C38.3314 67.4059 39.8148 68.2354 42 65L45 68L43 63L41 63z"/>
<path style="fill:#6a6a6a; stroke:none;" d="M48 63L49 64L48 63z"/>
<path style="fill:#cacdce; stroke:none;" d="M68 63L68 64L72 64L68 63z"/>
<path style="fill:#97918c; stroke:none;" d="M83 63L83 65L85 65L85 63L83 63z"/>
<path style="fill:#cacdce; stroke:none;" d="M47 69L48 69L50 65C46.846 64.2843 46.5694 66.2558 47 69z"/>
<path style="fill:#bababa; stroke:none;" d="M50.3333 65.6667L50.6667 66.3333L50.3333 65.6667z"/>
<path style="fill:#ffcc9c; stroke:none;" d="M109 65C102.001 74.0103 99.3328 74.4709 102 86L108 81L108 80L103 76L103 75L106 76L105 73L108 70L110 71L109 65z"/>
<path style="fill:#bababa; stroke:none;" d="M68.6667 66.3333L69.3333 66.6667L68.6667 66.3333z"/>
<path style="fill:#8f7961; stroke:none;" d="M110.333 66.6667L110.667 67.3333L110.333 66.6667z"/>
<path style="fill:#815244; stroke:none;" d="M65 67L65 68L72 68L65 67z"/>
<path style="fill:#6a6a6a; stroke:none;" d="M45 68L47 70L47 68L45 68z"/>
<path style="fill:#a38c6e; stroke:none;" d="M73 72L80 68L73 72z"/>
<path style="fill:#8f7961; stroke:none;" d="M105.333 69.6667L105.667 70.3333L105.333 69.6667z"/>
<path style="fill:#a38c6e; stroke:none;" d="M108 70L105 73L106 76L103 75L103 76L108 80L108 81L106 84C111.742 79.819 112.724 75.5189 108 70z"/>
<path style="fill:#53768a; stroke:none;" d="M56 71L48 77L48 78L54 76L58 81C56.9111 86.9112 61.6388 90.5718 65 95L66 95L60 80L56 71z"/>
<path style="fill:#a38c6e; stroke:none;" d="M104 71L101 72L101 73L104 71z"/>
<path style="fill:#8da7b8; stroke:none;" d="M57 72C55.9693 75.7841 55.998 78.5926 60 80C58.9658 86.0285 62.9753 89.1998 66 94L67 94C66.3304 86.3786 62.5137 77.347 57 72z"/>
<path style="fill:#6c7e8c; stroke:none;" d="M68 87L67 87L64 80L63 80L66 97L69 96L68 126L70 126L71 95C65.6101 95 72 78.2664 72 74L75 87L76 87L76 76L85 84C85.5297 80.0265 76.895 70.3604 72.4992 73.1605C69.5449 75.0424 69.0358 83.7392 68 87z"/>
<path style="fill:#d9dddd; stroke:none;" d="M61 74L64 78L61 74z"/>
<path style="fill:#8da7b8; stroke:none;" d="M72 74C71.8435 81.3472 65.9709 89.2616 70 96C72.864 90.6489 78.3191 78.4871 72 74z"/>
<path style="fill:#fbfec6; stroke:none;" d="M108 74L109 75L108 74z"/>
<path style="fill:#ffffff; stroke:none;" d="M69 75L69 77L71 77L71 75L69 75z"/>
<path style="fill:#7596ab; stroke:none;" d="M52 96L53 96C53.7064 100.935 58.2836 105.208 58.4807 109.985C58.6208 113.38 54.7944 115.879 53.8086 119.035C51.0446 127.887 62.6203 126 68 126L67.49 99L58 81L54 76C42.4783 79.1957 40.5019 95.9959 46.7253 104.999C47.8289 106.596 54.5181 115.356 56.1836 109.677C57.3148 105.821 52.5302 100.053 52 96z"/>
<path style="fill:#fbfec6; stroke:none;" d="M65 76L67 78L67 76L65 76z"/>
<path style="fill:#7596ab; stroke:none;" d="M76 76L70.3295 99L70 126C83.5313 125.673 77.3789 116.295 73 109L80 114L80 86L81 86C81.3324 97.1944 87.6838 98.2458 97 98L104 92L105 91L105 87L100 83L92.5864 88.8781L76 76z"/>
<path style="fill:#b1aeac; stroke:none;" d="M68 79L71 77L68 79z"/>
<path style="fill:#ffffff; stroke:none;" d="M64 79L65 83L66 83L64 79M67 79L68 85L69 85L70 79L67 79z"/>
<path style="fill:#6c7e8c; stroke:none;" d="M45 80C43.0395 86.1824 40.4402 94.5938 42.7276 101C44.0455 104.691 47.2915 107.306 48.5787 111C50.2872 115.903 48.3438 121.645 53 125L60 111L54 114L43.5494 98L45 80z"/>
<path style="fill:#6a6a6a; stroke:none;" d="M100 80L93 90L99 83L100 83L101 86L102 86L100 80z"/>
<path style="fill:#53768a; stroke:none;" d="M53 82L51 90L53 82z"/>
<path style="fill:#bababa; stroke:none;" d="M67 82L65 84L68 87L67 82z"/>
<path style="fill:#53768a; stroke:none;" d="M86 84L88 87L86 84z"/>
<path style="fill:#3b4d5b; stroke:none;" d="M105 84L104 90L105 90L105 84z"/>
<path style="fill:#7596ab; stroke:none;" d="M106 84L106 89L107 89L106 84z"/>
<path style="fill:#53768a; stroke:none;" d="M80 86L79 99L80 99L80 95C85.9466 99.4785 88.8836 101.981 96 98L96 97C85.8996 99.6366 83.8194 94.2713 80 86M74 87L72 93L73 93L74 87z"/>
<path style="fill:#536169; stroke:none;" d="M88.3333 87.6667L88.6667 88.3333L88.3333 87.6667z"/>
<path style="fill:#bababa; stroke:none;" d="M42.3333 89.6667L42.6667 90.3333L42.3333 89.6667z"/>
<path style="fill:#414546; stroke:none;" d="M51 90L51 94L52 94L51 90z"/>
<path style="fill:#536169; stroke:none;" d="M97 96L103 91L97 96M71.3333 93.6667L71.6667 94.3333L71.3333 93.6667M52 96C52.3819 101.748 55.0387 107.868 60 111L52 96z"/>
<path style="fill:#414546; stroke:none;" d="M67 96L69 99L69 96L67 96z"/>
<path style="fill:#bababa; stroke:none;" d="M79 101L79 104L80 104L79 101z"/>
<path style="fill:#536169; stroke:none;" d="M69 103L69 120L70 120L69 103z"/>
<path style="fill:#53768a; stroke:none;" d="M73 109L79 118L80 118L73 109z"/>
<path style="fill:#b1957d; stroke:none;" d="M54 114L59 110L54 114z"/>
<path style="fill:#3b4d5b; stroke:none;" d="M52 113L50 115L50 116C52.2508 115.527 53.1177 115.14 52 113M49 117C46.9591 128.175 53 142.894 53 155C53 158.491 51.7025 165.362 54.0278 168.258C57.4631 172.538 77.8844 173.689 80.8241 168.4C84.5659 161.668 69.9725 161.457 67 162L69 128L78 130L79 130L80 118L79 118C78.2318 128.098 59.2582 129.147 52.3179 123.91C50.1241 122.255 50.0243 119.338 49 117z"/>
<path style="fill:#bababa; stroke:none;" d="M80 120L80 124L81 124L80 120z"/>
<path style="fill:#d8d4d3; stroke:none;" d="M50 126L50 130L51 130L50 126z"/>
<path style="fill:#53768a; stroke:none;" d="M52 127L55 165C68.3523 161.973 66.9672 139.893 67 128L52 127M69 128L67 162L76 162C73.7887 150.089 85.6111 128.013 69 128z"/>
<path style="fill:#a4a4a3; stroke:none;" d="M78 132L78 135L79 135L78 132z"/>
<path style="fill:#909a9e; stroke:none;" d="M51 133L51 136L52 136L51 133M77.3333 138.667L77.6667 139.333L77.3333 138.667z"/>
<path style="fill:#bababa; stroke:none;" d="M52 141L52 144L53 144L52 141M75 149L75 152L76 152L75 149z"/>
<path style="fill:#6c7e8c; stroke:none;" d="M53.6667 169.333L54.3333 169.667L53.6667 169.333z"/>
<path style="fill:#909a9e; stroke:none;" d="M57.6667 170.333L58.3333 170.667L57.6667 170.333M64.6667 171.333L65.3333 171.667L64.6667 171.333z"/>
</svg>
